{"asset":{"generator":"3D Builder","version":"2.0"},"scene":0,"scenes":[{"nodes":[0,1,2,3,4,5]}],"nodes":[{"mesh":0,"matrix":[1,0,0,0,0,-1.1920928955078125E-7,-0.99999988079071045,0,0,0.99999988079071045,-1.1920928955078125E-7,0,0.00063230755040422082,0.25646206736564636,-0.27017298340797424,1]},{"mesh":1,"matrix":[1,0,0,0,0,-1.1920928955078125E-7,-0.99999988079071045,0,0,0.99999988079071045,-1.1920928955078125E-7,0,0.00063230755040422082,0.25646206736564636,-0.27017298340797424,1]},{"mesh":2,"matrix":[1,0,0,0,0,-1.1920928955078125E-7,-0.99999988079071045,0,0,0.99999988079071045,-1.1920928955078125E-7,0,0.00063230755040422082,0.25646206736564636,-0.27017298340797424,1]},{"mesh":3,"matrix":[1,0,0,0,0,-1.1920928955078125E-7,-0.99999988079071045,0,0,0.99999988079071045,-1.1920928955078125E-7,0,0.00063230755040422082,0.25646206736564636,-0.27017298340797424,1]},{"mesh":4,"matrix":[1,0,0,0,0,-1.1920928955078125E-7,-0.99999988079071045,0,0,0.99999988079071045,-1.1920928955078125E-7,0,0.00063230755040422082,0.25646206736564636,-0.27017298340797424,1]},{"mesh":5,"matrix":[1,0,0,0,0,-1.1920928955078125E-7,-0.99999988079071045,0,0,0.99999988079071045,-1.1920928955078125E-7,0,0.00063230755040422082,0.25646206736564636,-0.27017298340797424,1]}],"meshes":[{"primitives":[{"attributes":{"POSITION":0,"TEXCOORD_0":1},"mode":4,"indices":2,"material":0}]},{"primitives":[{"attributes":{"POSITION":3,"TEXCOORD_0":4},"mode":4,"indices":5,"material":0}]},{"primitives":[{"attributes":{"POSITION":6,"TEXCOORD_0":7},"mode":4,"indices":8,"material":0}]},{"primitives":[{"attributes":{"POSITION":9,"TEXCOORD_0":10},"mode":4,"indices":11,"material":0}]},{"primitives":[{"attributes":{"POSITION":12,"TEXCOORD_0":13},"mode":4,"indices":14,"material":0}]},{"primitives":[{"attributes":{"POSITION":15,"TEXCOORD_0":16},"mode":4,"indices":17,"material":0}]}],"materials":[{"pbrMetallicRoughness":{"baseColorFactor":[1,1,1,1],"metallicFactor":1,"roughnessFactor":1,"baseColorTexture":{"index":0,"texCoord":0},"metallicRoughnessTexture":{"index":1,"texCoord":0}},"alphaMode":"OPAQUE"}],"textures":[{"source":0,"sampler":0},{"source":1,"sampler":0}],"images":[{"uri":"texture_4_6195987693227547908.png"},{"uri":"texture_5_17319628118832143767.png"}],"samplers":[{"magFilter":9729,"wrapS":10497,"wrapT":10497}],"accessors":[{"bufferView":0,"byteOffset":0,"count":44,"componentType":5126,"type":"VEC3","min":[-0.13792107999324799,-0.27799755334854126,-0.012082457542419434],"max":[0.0057399938814342022,-0.2410256415605545,0.10350176692008972]},{"bufferView":1,"byteOffset":0,"count":44,"componentType":5126,"type":"VEC2"},{"bufferView":2,"byteOffset":0,"count":120,"componentType":5125,"type":"SCALAR"},{"bufferView":3,"byteOffset":0,"count":44,"componentType":5126,"type":"VEC3","min":[-0.012672220356762409,-0.26412284374237061,-0.25646212697029114],"max":[0.13593651354312897,-0.22259669005870819,-0.082377240061759949]},{"bufferView":4,"byteOffset":0,"count":44,"componentType":5126,"type":"VEC2"},{"bufferView":5,"byteOffset":0,"count":120,"componentType":5125,"type":"SCALAR"},{"bufferView":6,"byteOffset":0,"count":44,"componentType":5126,"type":"VEC3","min":[-0.13927605748176575,-0.26436182856559753,-0.25470897555351257],"max":[0.012230823747813702,-0.22315311431884766,-0.078939378261566162]},{"bufferView":7,"byteOffset":0,"count":44,"componentType":5126,"type":"VEC2"},{"bufferView":8,"byteOffset":0,"count":120,"componentType":5125,"type":"SCALAR"},{"bufferView":9,"byteOffset":0,"count":44,"componentType":5126,"type":"VEC3","min":[-0.0056409677490592,-0.27785605192184448,-0.013893574476242065],"max":[0.13801144063472748,-0.24045929312705994,0.10168752074241638]},{"bufferView":10,"byteOffset":0,"count":44,"componentType":5126,"type":"VEC2"},{"bufferView":11,"byteOffset":0,"count":120,"componentType":5125,"type":"SCALAR"},{"bufferView":12,"byteOffset":0,"count":44,"componentType":5126,"type":"VEC3","min":[-0.014668923802673817,-0.28094682097435,-0.098838001489639282],"max":[0.015084225684404373,-0.23405900597572327,0.13899603486061096]},{"bufferView":13,"byteOffset":0,"count":44,"componentType":5126,"type":"VEC2"},{"bufferView":14,"byteOffset":0,"count":120,"componentType":5125,"type":"SCALAR"},{"bufferView":15,"byteOffset":0,"count":110,"componentType":5126,"type":"VEC3","min":[-0.059592682868242264,-0.33413657546043396,0.12736770510673523],"max":[0.062433280050754547,-0.20620940625667572,0.25529196858406067]},{"bufferView":16,"byteOffset":0,"count":110,"componentType":5126,"type":"VEC2"},{"bufferView":17,"byteOffset":0,"count":540,"componentType":5125,"type":"SCALAR"}],"bufferViews":[{"buffer":0,"byteOffset":0,"byteLength":528,"byteStride":12,"target":34962},{"buffer":0,"byteOffset":528,"byteLength":352,"byteStride":8,"target":34962},{"buffer":0,"byteOffset":880,"byteLength":480,"target":34963},{"buffer":0,"byteOffset":1360,"byteLength":528,"byteStride":12,"target":34962},{"buffer":0,"byteOffset":1888,"byteLength":352,"byteStride":8,"target":34962},{"buffer":0,"byteOffset":2240,"byteLength":480,"target":34963},{"buffer":0,"byteOffset":2720,"byteLength":528,"byteStride":12,"target":34962},{"buffer":0,"byteOffset":3248,"byteLength":352,"byteStride":8,"target":34962},{"buffer":0,"byteOffset":3600,"byteLength":480,"target":34963},{"buffer":0,"byteOffset":4080,"byteLength":528,"byteStride":12,"target":34962},{"buffer":0,"byteOffset":4608,"byteLength":352,"byteStride":8,"target":34962},{"buffer":0,"byteOffset":4960,"byteLength":480,"target":34963},{"buffer":0,"byteOffset":5440,"byteLength":528,"byteStride":12,"target":34962},{"buffer":0,"byteOffset":5968,"byteLength":352,"byteStride":8,"target":34962},{"buffer":0,"byteOffset":6320,"byteLength":480,"target":34963},{"buffer":0,"byteOffset":6800,"byteLength":1320,"byteStride":12,"target":34962},{"buffer":0,"byteOffset":8120,"byteLength":880,"byteStride":8,"target":34962},{"buffer":0,"byteOffset":9000,"byteLength":2160,"target":34963}],"buffers":[{"byteLength":11160,"uri":"Stick.bin"}]}